Coordinates
version=1
nRows=8
nColumns=40
inDegrees=yes

Units are S.I. units (second, meters, Newtons, ...)
If the header above contains a line with 'inDegrees', this indicates whether rotational values are in degrees (yes) or radians (no).

endheader
time	pelvis_tilt	pelvis_list	pelvis_rotation	pelvis_tx	pelvis_ty	pelvis_tz	hip_flexion_r	hip_adduction_r	hip_rotation_r	knee_angle_r	knee_angle_r_beta	ankle_angle_r	subtalar_angle_r	mtp_angle_r	hip_flexion_l	hip_adduction_l	hip_rotation_l	knee_angle_l	knee_angle_l_beta	ankle_angle_l	subtalar_angle_l	mtp_angle_l	lumbar_extension	lumbar_bending	lumbar_rotation	arm_flex_r	arm_add_r	arm_rot_r	elbow_flex_r	pro_sup_r	wrist_flex_r	wrist_dev_r	arm_flex_l	arm_add_l	arm_rot_l	elbow_flex_l	pro_sup_l	wrist_flex_l	wrist_dev_l
      9.97500000	      3.42042105	      0.87234422	   -172.65609645	      0.19878330	      0.79602888	     -0.92442515	      5.48826742	    -33.14926571	    -34.79209601	     11.50691260	      0.20083351	    -10.55672330	      0.00000000	      0.00000000	     17.22073565	    -34.66845733	    -23.33924742	     17.40981742	      0.30385864	     -9.47924948	      0.00000000	      0.00000000	    -18.88431199	     -1.77367355	     -1.67101239	     21.48341995	    -14.40598962	     57.95112726	     14.48348302	     85.12063742	      0.00000000	      0.00000000	     25.59045088	    -16.10336113	     71.20248935	     16.26671056	     77.89207663	      0.00000000	      0.00000000
      9.98000000	      3.11353962	      0.82273556	   -172.66882486	      0.19671070	      0.79672337	     -0.92456584	      4.80192239	    -32.99230610	    -34.95303092	     11.11865448	      0.19405713	    -10.60050886	      0.00000000	      0.00000000	     16.46272663	    -34.59872158	    -23.60946410	     17.01651402	      0.29699420	     -9.53757592	      0.00000000	      0.00000000	    -18.59623432	     -1.85417882	     -1.63767488	     21.12257212	    -14.52750961	     58.32992496	     14.69990197	     85.05160709	      0.00000000	      0.00000000	     25.08946439	    -16.06604904	     70.05681635	     16.21964074	     78.61646610	      0.00000000	      0.00000000
      9.98500000	      2.83024128	      1.47385696	   -171.97846167	      0.19492173	      0.79708802	     -0.92372066	      3.60042787	    -32.06750725	    -36.16949802	     10.47572413	      0.18283588	    -10.85958010	      0.00000000	      0.00000000	     16.73015674	    -35.12188639	    -22.46379555	     16.98622379	      0.29646553	     -9.41404512	      0.00000000	      0.00000000	    -18.20248272	     -0.97928463	     -2.01972928	     20.49476753	    -14.54450552	     56.60513490	     14.76141612	     85.28903860	      0.00000000	      0.00000000	     24.67178494	    -16.06384945	     69.52532400	     16.44970396	     78.86707777	      0.00000000	      0.00000000
      9.99000000	      2.52354951	      0.78300917	   -172.71501167	      0.19267908	      0.79796207	     -0.92486547	      3.53593533	    -32.65799481	    -35.27436013	     10.46210249	      0.18259814	    -10.62362055	      0.00000000	      0.00000000	     14.98546513	    -34.52812033	    -24.14064894	     16.24072122	      0.28345406	     -9.60264894	      0.00000000	      0.00000000	    -18.00802465	     -1.96474490	     -1.49619136	     20.30899155	    -14.65875687	     58.19622691	     14.97272827	     85.07364743	      0.00000000	      0.00000000	     24.25567842	    -16.14846991	     68.97053994	     16.38096220	     78.92637676	      0.00000000	      0.00000000
      9.99500000	      2.17555472	      0.77329550	   -172.74994214	      0.19069932	      0.79866419	     -0.92504398	      2.81389999	    -32.44224534	    -35.47763112	     10.02395367	      0.17495100	    -10.74774915	      0.00000000	      0.00000000	     14.18788091	    -34.51410064	    -24.44883490	     15.86023034	      0.27681324	     -9.66693798	      0.00000000	      0.00000000	    -17.78908449	     -2.00812111	     -1.40689930	     19.93774683	    -14.69963304	     58.22834717	     15.06455781	     84.89767960	      0.00000000	      0.00000000	     23.95979514	    -16.30291008	     69.04549241	     16.68375349	     78.35440816	      0.00000000	      0.00000000
     10.00000000	      1.96079171	      0.71340440	   -172.79359690	      0.18887813	      0.79909507	     -0.92519220	      2.31317979	    -32.35262525	    -35.60730253	      9.74356398	      0.17005727	    -10.77329694	      0.00000000	      0.00000000	     13.56277473	    -34.43064058	    -24.75746486	     15.52714614	      0.27099982	     -9.65215794	      0.00000000	      0.00000000	    -17.44191242	     -2.12849355	     -1.30928971	     19.54525177	    -14.80710093	     58.21578828	     15.27938777	     84.93863412	      0.00000000	      0.00000000	     23.71492511	    -16.38610776	     69.22808936	     16.73600501	     79.44101286	      0.00000000	      0.00000000
     10.00500000	      1.66843923	      0.73557498	   -172.86650805	      0.18702162	      0.79962848	     -0.92542685	      1.74340524	    -32.14291219	    -35.74524388	      9.42527701	      0.16450212	    -10.76748085	      0.00000000	      0.00000000	     12.84686100	    -34.46559266	    -25.13007000	     15.20113918	      0.26530993	     -9.66198750	      0.00000000	      0.00000000	    -17.17932038	     -2.14414786	     -1.18418915	     19.11888796	    -14.73015802	     57.50786985	     15.24366235	     85.11725193	      0.00000000	      0.00000000	     23.27583038	    -16.33900790	     68.40725849	     16.64516855	     79.45694141	      0.00000000	      0.00000000
     10.01000000	      1.37726798	      0.63051834	   -172.97975424	      0.18529430	      0.80023432	     -0.92570334	      1.18906683	    -32.06686840	    -35.78339997	      9.08143457	      0.15850093	    -10.77512084	      0.00000000	      0.00000000	     12.00570084	    -34.32773861	    -25.54400880	     14.73490118	      0.25717254	     -9.79694733	      0.00000000	      0.00000000	    -16.95977681	     -2.31803945	     -1.06791430	     18.83776822	    -14.88132807	     58.00349076	     15.54831309	     85.02560483	      0.00000000	      0.00000000	     22.97513027	    -16.42350502	     68.31748441	     16.75946999	     79.35722241	      0.00000000	      0.00000000
